<svg id="icons" enable-background="new 0 0 64 64" height="512" viewBox="0 0 64 64" width="512" xmlns="http://www.w3.org/2000/svg"><path d="m15.5 1v52h36 4v-52z" fill="#ed5565"/><path d="m15.5 1v52h-2c-2.76 0-5 2.24-5 5v-52c0-2.76 2.23-5 5-5z" fill="#656d78"/><path d="m55.5 53v10h-4v-5-5z" fill="#da4453"/><path d="m15.5 53h36v5 5h-38c-2.76 0-5-2.24-5-5s2.24-5 5-5z" fill="#e6e9ed"/><path d="m35.49 15.99h7c3.87 0 7 3.14 7 7 0 3.87-3.13 7-7 7-2.79 0-5.19-1.63-6.32-4h-1.359c-1.131 2.37-3.53 4-6.32 4-3.87 0-7-3.13-7-7 0-3.86 3.13-7 7-7z" fill="#e6e9ed"/><path d="m13.5 64c-3.309 0-6-2.691-6-6s2.691-6 6-6c.553 0 1 .447 1 1s-.447 1-1 1c-2.206 0-4 1.794-4 4s1.794 4 4 4c.553 0 1 .447 1 1s-.447 1-1 1z"/><path d="m55.5 54h-42c-.553 0-1-.447-1-1s.447-1 1-1h42c.553 0 1 .447 1 1s-.447 1-1 1z"/><path d="m55.5 64h-42c-.553 0-1-.447-1-1s.447-1 1-1h42c.553 0 1 .447 1 1s-.447 1-1 1z"/><path d="m8.5 7c-.553 0-1-.447-1-1 0-3.309 2.691-6 6-6 .553 0 1 .447 1 1s-.447 1-1 1c-2.206 0-4 1.794-4 4 0 .553-.447 1-1 1z"/><path d="m8.5 59c-.553 0-1-.447-1-1v-52c0-.553.447-1 1-1s1 .447 1 1v52c0 .553-.447 1-1 1z"/><path d="m55.5 2h-42c-.553 0-1-.447-1-1s.447-1 1-1h42c.553 0 1 .447 1 1s-.447 1-1 1z"/><path d="m55.5 54c-.553 0-1-.447-1-1v-52c0-.553.447-1 1-1s1 .447 1 1v52c0 .553-.447 1-1 1z"/><path d="m55.5 64c-.553 0-1-.447-1-1v-10c0-.553.447-1 1-1s1 .447 1 1v10c0 .553-.447 1-1 1z"/><path d="m15.5 54c-.553 0-1-.447-1-1v-52c0-.553.447-1 1-1s1 .447 1 1v52c0 .553-.447 1-1 1z"/><path d="m51.5 59.002h-38c-.553 0-1-.447-1-1s.447-1 1-1h38c.553 0 1 .447 1 1s-.447 1-1 1z"/><path d="m51.5 64c-.553 0-1-.447-1-1v-10c0-.553.447-1 1-1s1 .447 1 1v10c0 .553-.447 1-1 1z"/><path d="m41.52 39.007h-12.006c-.553 0-1-.447-1-1s.447-1 1-1h12.006c.553 0 1 .447 1 1s-.448 1-1 1z"/><path d="m47.52 36.009h-24.008c-.553 0-1-.447-1-1s.447-1 1-1h24.008c.553 0 1 .447 1 1s-.448 1-1 1z"/><path d="m42.492 30.994c-2.85 0-5.5-1.551-6.92-4h-.16c-1.42 2.449-4.07 4-6.92 4-4.411 0-8-3.589-8-8s3.589-8 8-8h14c4.411 0 8 3.589 8 8s-3.589 8-8 8zm-7.682-6h1.365c.386 0 .737.222.903.57.991 2.083 3.116 3.43 5.414 3.43 3.309 0 6-2.691 6-6s-2.691-6-6-6h-14c-3.309 0-6 2.691-6 6s2.691 6 6 6c2.298 0 4.423-1.347 5.414-3.43.166-.348.518-.57.904-.57z"/><path d="m28.492 25.994c-.553 0-1-.447-1-1v-4c0-.553.447-1 1-1s1 .447 1 1v4c0 .553-.447 1-1 1z"/><path d="m30.492 23.994h-4c-.553 0-1-.447-1-1s.447-1 1-1h4c.553 0 1 .447 1 1s-.447 1-1 1z"/><path d="m40.536 23.994c-.553 0-1.005-.447-1.005-1s.442-1 .994-1h.011c.552 0 1 .447 1 1s-.448 1-1 1z"/><path d="m42.536 21.994c-.553 0-1.005-.447-1.005-1s.442-1 .994-1h.011c.552 0 1 .447 1 1s-.448 1-1 1z"/><path d="m42.538 25.995c-.553 0-1.005-.447-1.005-1s.442-1 .994-1h.011c.552 0 1 .447 1 1s-.448 1-1 1z"/><path d="m44.538 23.995c-.553 0-1.005-.447-1.005-1s.442-1 .994-1h.011c.552 0 1 .447 1 1s-.448 1-1 1z"/><path d="m35.492 16.995c-.553 0-1-.447-1-1v-1.002c0-.553.447-1 1-1s1 .447 1 1v1.002c0 .553-.447 1-1 1z"/><path d="m35.492 15.993c-.553 0-1-.447-1-1 0-1.654 1.346-3 3-3 .553 0 1 .447 1 1s-.447 1-1 1c-.552 0-1 .448-1 1 0 .553-.447 1-1 1z"/><path d="m43.494 13.992c-.553 0-1-.447-1-1s.447-1 1-1c.551 0 .998-.447.998-.998s-.447-.998-.998-.998c-.553 0-1-.447-1-1s.447-1 1-1c1.653 0 2.998 1.345 2.998 2.998s-1.345 2.998-2.998 2.998z"/><path d="m43.494 9.995h-16.002c-.553 0-1-.447-1-1s.447-1 1-1h16.002c.553 0 1 .447 1 1s-.447 1-1 1z"/><path d="m43.494 13.993h-6.002c-.553 0-1-.447-1-1s.447-1 1-1h6.002c.553 0 1 .447 1 1s-.447 1-1 1z"/><path d="m35.492 16.995c-.553 0-1-.447-1-1v-1.002c0-.553.447-1 1-1s1 .447 1 1v1.002c0 .553-.447 1-1 1z"/><path d="m24.497 48.001c-.553 0-1-.447-1-1v-4c0-.553.447-1 1-1s1 .447 1 1v4c0 .553-.447 1-1 1z"/><path d="m25.497 45.001c-.256 0-.512-.098-.707-.293l-1-1c-.391-.391-.391-1.023 0-1.414s1.023-.391 1.414 0l1 1c.391.391.391 1.023 0 1.414-.195.195-.451.293-.707.293z"/><path d="m23.497 45.001c-.256 0-.512-.098-.707-.293-.391-.391-.391-1.023 0-1.414l1-1c.391-.391 1.023-.391 1.414 0s.391 1.023 0 1.414l-1 1c-.195.195-.451.293-.707.293z"/><path d="m38.505 48.001c-.553 0-1-.447-1-1v-4c0-.553.447-1 1-1s1 .447 1 1v4c0 .553-.447 1-1 1z"/><path d="m38.505 48.001c-.256 0-.512-.098-.707-.293l-1-1c-.391-.391-.391-1.023 0-1.414s1.023-.391 1.414 0l1 1c.391.391.391 1.023 0 1.414-.195.195-.451.293-.707.293z"/><path d="m38.505 48.001c-.256 0-.512-.098-.707-.293-.391-.391-.391-1.023 0-1.414l1-1c.391-.391 1.023-.391 1.414 0s.391 1.023 0 1.414l-1 1c-.195.195-.451.293-.707.293z"/><path d="m33.494 46.001h-4c-.553 0-1-.447-1-1s.447-1 1-1h4c.553 0 1 .447 1 1s-.447 1-1 1z"/><path d="m32.494 47.001c-.256 0-.512-.098-.707-.293-.391-.391-.391-1.023 0-1.414l1-1c.391-.391 1.023-.391 1.414 0s.391 1.023 0 1.414l-1 1c-.195.195-.451.293-.707.293z"/><path d="m33.494 46.001c-.256 0-.512-.098-.707-.293l-1-1c-.391-.391-.391-1.023 0-1.414s1.023-.391 1.414 0l1 1c.391.391.391 1.023 0 1.414-.195.195-.451.293-.707.293z"/><path d="m47.506 46.002h-4c-.553 0-1-.447-1-1s.447-1 1-1h4c.553 0 1 .447 1 1s-.447 1-1 1z"/><path d="m43.506 46.002c-.256 0-.512-.098-.707-.293-.391-.391-.391-1.023 0-1.414l1-1c.391-.391 1.023-.391 1.414 0s.391 1.023 0 1.414l-1 1c-.195.195-.451.293-.707.293z"/><path d="m44.506 47.002c-.256 0-.512-.098-.707-.293l-1-1c-.391-.391-.391-1.023 0-1.414s1.023-.391 1.414 0l1 1c.391.391.391 1.023 0 1.414-.195.195-.451.293-.707.293z"/></svg>